<?xml version="1.0" encoding="utf-8"?>
<!-- Generator: Adobe Illustrator 23.0.1, SVG Export Plug-In . SVG Version: 6.00 Build 0)  -->
<svg version="1.1" id="Layer_1" xmlns="http://www.w3.org/2000/svg" xmlns:xlink="http://www.w3.org/1999/xlink" x="0px" y="0px"
	 viewBox="0 0 176 50" style="enable-background:new 0 0 176 50;" xml:space="preserve">
<style type="text/css">
	.st0{fill:#FFFFFF;}
	.st1{fill:none;stroke:#B3B3B3;stroke-width:1.5;stroke-miterlimit:10;}
	.st2{fill:#787878;}
	.st3{fill:#003399;}
</style>
<rect x="13.88" class="st0" width="86.13" height="50"/>
<rect x="152" class="st0" width="10.12" height="50"/>
<rect width="13.88" height="50"/>
<rect x="162.12" width="13.88" height="50"/>
<path d="M139.07,50.02h-25.88c-6.63,0-12.06-5.43-12.06-12.06V12.07c0-6.63,5.43-12.06,12.06-12.06h25.88
	c6.63,0,12.06,5.43,12.06,12.06v25.88C151.12,44.59,145.7,50.02,139.07,50.02z"/>
<path class="st0" d="M137.27,30.19V19.83c0-3.28-2.68-5.96-5.96-5.96h-10.38c-3.28,0-5.96,2.68-5.96,5.96V30.2
	c0,3.28,2.68,5.96,5.96,5.96h10.38C134.59,36.15,137.27,33.47,137.27,30.19z"/>
<g>
	<circle class="st1" cx="62.51" cy="12.53" r="9.98"/>
	<g>
		<path class="st2" d="M67.2,12.54l-5.1,4.82v-2.68h-4.29V10.4h4.29V7.7L67.2,12.54z"/>
	</g>
</g>
<g>
	<circle class="st1" cx="87.55" cy="12.53" r="9.98"/>
	<g>
		<path class="st2" d="M82.85,12.54l5.1,4.82v-2.68h4.29V10.4h-4.29V7.7L82.85,12.54z"/>
	</g>
</g>
<g>
	<circle class="st1" cx="37.46" cy="12.53" r="9.98"/>
	<g>
		<path class="st2" d="M39.08,16.73l-0.68-0.97c-0.36-0.53-0.72-1.09-0.96-1.55c-0.23,0.44-0.6,1.02-0.98,1.55l-0.68,0.97h-3.17
			l3.29-4.25l-3.18-4.15h3.24l0.56,0.82c0.36,0.53,0.75,1.09,0.96,1.54c0.23-0.44,0.62-1.01,0.98-1.54l0.56-0.82h3.17l-3.18,4.1
			l3.3,4.29L39.08,16.73L39.08,16.73z"/>
	</g>
</g>
<g>
	<circle class="st1" cx="62.51" cy="37.45" r="9.98"/>
	<g>
		<path class="st3" d="M67.2,37.46l-5.1,4.82V39.6h-4.29v-4.28h4.29v-2.7L67.2,37.46z"/>
	</g>
</g>
<g>
	<circle class="st1" cx="87.55" cy="37.45" r="9.98"/>
	<g>
		<path class="st3" d="M82.85,37.46l5.1,4.82V39.6h4.29v-4.28h-4.29v-2.7L82.85,37.46z"/>
	</g>
</g>
<g>
	<circle class="st1" cx="37.46" cy="37.45" r="9.98"/>
	<g>
		<path class="st3" d="M39.08,41.65l-0.68-0.97c-0.36-0.53-0.72-1.09-0.96-1.55c-0.23,0.44-0.6,1.02-0.98,1.55l-0.68,0.97h-3.17
			l3.29-4.25l-3.18-4.15h3.24l0.56,0.82c0.36,0.53,0.75,1.09,0.96,1.54c0.23-0.44,0.62-1.01,0.98-1.54l0.56-0.82h3.17l-3.18,4.1
			l3.3,4.29h-3.23V41.65z"/>
	</g>
</g>
</svg>
